#!OML:ASF G:\JayActor3\Patient Classification 1\Patient 1\Session 5\male.ASF
:FULLY-SPECIFIED
:DEGREES
564
root 48.061 16.2438 -5.00405 1286.52 82.7473 1288.2
lowerback -2.65285 0.164409 2.08905
upperback 2.15618 0.154408 -0.4593
thorax 3.71495 0.142282 -1.63537
lowerneck -9.30745 -2.00075 0.638402
upperneck 11.5161 -3.18668 3.57374
head 5.0413 -1.26459 0.783414
rclavicle 3.54085e-015 1.07344e-014
rhumerus -26.7371 -7.41016 -88.036
rradius 23.7988
rwrist 8.65007
rhand -18.4383 -4.44726
rfingers 7.12502
rthumb 7.84732 -34.2816
lclavicle 3.54085e-015 1.07344e-014
lhumerus -28.2779 10.7473 82.5279
lradius 26.1449
lwrist 11.2716
lhand -17.11 14.0679
lfingers 7.12502
lthumb 9.12922 43.8503
rfemur -6.02822 3.02815 27.2751
rtibia 33.8638
rfoot -26.7824 -14.5724
rtoes 9.12351
lfemur -5.31699 2.49439 -15.5357
ltibia 24.2999
lfoot -14.8952 -8.7323
ltoes -2.56287
565
root 48.0904 16.2409 -5.01594 1287.34 82.8833 1289
lowerback -2.73613 0.172807 2.11631
upperback 2.14912 0.161905 -0.446563
thorax 3.75521 0.146804 -1.63702
lowerneck -9.2712 -1.95582 0.642633
upperneck 11.5003 -3.1179 3.51176
head 5.02803 -1.23593 0.768761
rclavicle -4.00054e-015 -5.96354e-015
rhumerus -26.8855 -7.94339 -87.8255
rradius 23.3606
rwrist 9.1003
rhand -18.509 -4.35126
rfingers 7.12502
rthumb 7.77907 -34.1882
lclavicle -4.00054e-015 -5.96354e-015
lhumerus -28.1779 10.544 82.649
lradius 26.4721
lwrist 11.4125
lhand -17.1918 14.0491
lfingers 7.12502
lthumb 9.05024 43.8349
rfemur -5.89534 3.07971 27.2675
rtibia 33.8008
rfoot -26.8066 -14.4841
rtoes 9.05488
lfemur -5.18012 2.7848 -15.5001
ltibia 24.2905
lfoot -15.007 -8.88481
ltoes -2.45378
566
root 48.1191 16.238 -5.02712 1288.3 83.0182 1289.94
lowerback -2.82767 0.181391 2.14782
upperback 2.14348 0.169036 -0.429016
thorax 3.80162 0.15128 -1.63609
lowerneck -9.24369 -1.90999 0.658152
upperneck 11.4826 -3.04853 3.44003
head 5.0154 -1.20711 0.749185
rclavicle 1.26228e-014 -2.38542e-015
rhumerus -27.0345 -8.50377 -87.5957
rradius 22.9488
rwrist 9.57326
rhand -18.5708 -4.25529
rfingers 7.12502
rthumb 7.71938 -34.0944
lclavicle 1.26228e-014 -2.38542e-015
lhumerus -28.0825 10.3429 82.7689
lradius 26.7946
lwrist 11.5466
lhand -17.2717 14.0583
lfingers 7.12502
lthumb 8.97314 43.8475
rfemur -5.78321 3.15152 27.2775
rtibia 33.7472
rfoot -26.829 -14.4154
rtoes 8.97302
lfemur -5.06671 3.0198 -15.4584
ltibia 24.3014
lfoot -15.1269 -8.97511
ltoes -2.39462
567
root 48.1468 16.2353 -5.03758 1289.42 83.1526 1291.03
lowerback -2.92731 0.187428 2.17924
upperback 2.13943 0.172305 -0.406129
thorax 3.85407 0.15385 -1.62981
lowerneck -9.23396 -1.85977 0.677786
upperneck 11.4708 -2.97479 3.37093
head 5.00756 -1.17548 0.729873
rclavicle 8.34896e-015 -1.47101e-014
rhumerus -27.1842 -9.08698 -87.3492
rradius 22.5666
rwrist 10.0753
rhand -18.6119 -4.1592
rfingers 7.12502
rthumb 7.6798 -33.9998
lclavicle 8.34896e-015 -1.47101e-014
lhumerus -27.9939 10.1535 82.8819
lradius 27.1056
lwrist 11.6744
lhand -17.3505 14.0358
lfingers 7.12502
lthumb 8.89708 43.8283
rfemur -5.69306 3.24488 27.3039
rtibia 33.7007
rfoot -26.8501 -14.366
rtoes 8.88675
lfemur -4.9798 3.19436 -15.4137
ltibia 24.3329
lfoot -15.2519 -8.99907
ltoes -2.35506
568
root 48.1735 16.2327 -5.0475 1290.67 83.2867 1292.23
lowerback -3.0281 0.192488 2.21054
upperback 2.13171 0.174026 -0.379659
thorax 3.9033 0.155519 -1.61984
lowerneck -9.23375 -1.8078 0.699378
upperneck 11.4626 -2.89936 3.30221
head 5.00248 -1.14274 0.710374
rclavicle -9.56651e-015 6.36111e-015
rhumerus -27.3445 -9.66896 -87.0919
rradius 22.2216
rwrist 10.5659
rhand -18.6493 -4.07611
rfingers 7.12502
rthumb 7.6437 -33.918
lclavicle -9.56651e-015 6.36111e-015
lhumerus -27.9191 9.97352 82.9895
lradius 27.4028
lwrist 11.8011
lhand -17.4382 13.9784
lfingers 7.12502
lthumb 8.81254 43.7744
rfemur -5.62646 3.34874 27.3392
rtibia 33.6614
rfoot -26.8669 -14.3259
rtoes 8.80105
lfemur -4.91911 3.31314 -15.3716
ltibia 24.3825
lfoot -15.3811 -8.9579
ltoes -2.3335
569
root 48.1989 16.2307 -5.05689 1292.09 83.4225 1293.59
lowerback -3.13444 0.198347 2.24408
upperback 2.11948 0.176325 -0.349157
thorax 3.95103 0.157407 -1.60692
lowerneck -9.24742 -1.75136 0.727586
upperneck 11.4626 -2.81947 3.23433
head 5.0022 -1.10715 0.690228
rclavicle 9.85227e-015 1.59028e-015
rhumerus -27.5078 -10.2259 -86.8318
rradius 21.9079
rwrist 11.0262
rhand -18.6715 -4.0101
rfingers 7.12502
rthumb 7.62227 -33.8527
lclavicle 9.85227e-015 1.59028e-015
lhumerus -27.8519 9.79922 83.0936
lradius 27.6808
lwrist 11.9379
lhand -17.523 13.91
lfingers 7.12502
lthumb 8.73063 43.7095
rfemur -5.59209 3.47057 27.3858
rtibia 33.6324
rfoot -26.8798 -14.2962
rtoes 8.71857
lfemur -4.88734 3.38658 -15.3298
ltibia 24.4424
lfoot -15.5103 -8.85461
ltoes -2.33995
570
root 48.2228 16.2293 -5.06593 1293.6 83.5673 1295.02
lowerback -3.24472 0.205671 2.26722
upperback 2.10073 0.180899 -0.318695
thorax 3.99428 0.160009 -1.58803
lowerneck -9.2643 -1.69445 0.752672
upperneck 11.4598 -2.73942 3.17362
head 5.00186 -1.07117 0.672805
rclavicle -6.08778e-016 3.97569e-016
rhumerus -27.6819 -10.7432 -86.5749
rradius 21.6315
rwrist 11.4137
rhand -18.7071 -3.94408
rfingers 7.12502
rthumb 7.58785 -33.788
lclavicle -6.08778e-016 3.97569e-016
lhumerus -27.795 9.63256 83.1954
lradius 27.9423
lwrist 12.0802
lhand -17.6023 13.8372
lfingers 7.12502
lthumb 8.65409 43.6398
rfemur -5.59319 3.60084 27.4239
rtibia 33.6175
rfoot -26.885 -14.2685
rtoes 8.6205
lfemur -4.88151 3.42538 -15.3043
ltibia 24.5025
lfoot -15.6286 -8.70353
ltoes -2.33504
571
root 48.2452 16.2284 -5.07509 1295.07 83.721 1296.39
lowerback -3.35554 0.21441 2.27654
upperback 2.0756 0.188169 -0.293151
thorax 4.03127 0.16349 -1.56627
lowerneck -9.28738 -1.64301 0.765028
upperneck 11.4579 -2.66668 3.12528
head 5.00334 -1.03843 0.660726
rclavicle 2.50966e-014 -4.37326e-015
rhumerus -27.8662 -11.2068 -86.3246
rradius 21.3927
rwrist 11.718
rhand -18.7493 -3.88327
rfingers 7.12502
rthumb 7.54716 -33.7286
lclavicle 2.50966e-014 -4.37326e-015
lhumerus -27.7469 9.45756 83.3002
lradius 28.1877
lwrist 12.2339
lhand -17.6667 13.792
lfingers 7.12502
lthumb 8.59197 43.5972
rfemur -5.62879 3.72645 27.4367
rtibia 33.6202
rfoot -26.8826 -14.233
rtoes 8.51208
lfemur -4.89284 3.44661 -15.3093
ltibia 24.5522
lfoot -15.744 -8.50528
ltoes -2.41961
572
root 48.2661 16.228 -5.08452 1296.48 83.8842 1297.69
lowerback -3.46168 0.223778 2.27217
upperback 2.0488 0.197325 -0.273804
thorax 4.0639 0.167558 -1.54307
lowerneck -9.29721 -1.59474 0.784008
upperneck 11.4309 -2.59702 3.0662
head 4.99463 -1.00831 0.644175
rclavicle -1.03617e-014 1.35174e-014
rhumerus -28.0575 -11.618 -86.0835
rradius 21.1934
rwrist 11.9449
rhand -18.7828 -3.82581
rfingers 7.12502
rthumb 7.51478 -33.6723
lclavicle -1.03617e-014 1.35174e-014
lhumerus -27.699 9.28021 83.408
lradius 28.4132
lwrist 12.3946
lhand -17.7123 13.7818
lfingers 7.12502
lthumb 8.54795 43.5888
rfemur -5.68903 3.84791 27.4223
rtibia 33.6405
rfoot -26.8747 -14.1914
rtoes 8.38985
lfemur -4.9126 3.43776 -15.3456
ltibia 24.5851
lfoot -15.8361 -8.27995
ltoes -2.44726
573
root 48.2852 16.2282 -5.09446 1297.75 84.0562 1298.85
lowerback -3.54869 0.232057 2.25233
upperback 2.01976 0.206669 -0.262473
thorax 4.08331 0.171246 -1.51946
lowerneck -9.299 -1.54943 0.80639
upperneck 11.3869 -2.53062 3.00099
head 4.9793 -0.980486 0.62503
rclavicle 8.52289e-015 1.19271e-015
rhumerus -28.2606 -12.0032 -85.8407
rradius 21.0334
rwrist 12.1398
rhand -18.7983 -3.76297
rfingers 7.12502
rthumb 7.49985 -33.61
lclavicle 8.52289e-015 1.19271e-015
lhumerus -27.6548 9.10501 83.5159
lradius 28.6141
lwrist 12.5468
lhand -17.7428 13.7714
lfingers 7.12502
lthumb 8.5185 43.5796
rfemur -5.76372 3.96134 27.3752
rtibia 33.675
rfoot -26.8624 -14.1428
rtoes 8.26516
lfemur -4.9326 3.40191 -15.417
ltibia 24.6001
lfoot -15.9039 -8.03779
ltoes -2.40625
574
root 48.3026 16.2286 -5.10479 1298.98 84.2259 1299.98
lowerback -3.60472 0.238197 2.23313
upperback 1.98974 0.214152 -0.255476
thorax 4.08408 0.173899 -1.50086
lowerneck -9.29068 -1.50372 0.840796
upperneck 11.3255 -2.46341 2.92418
head 4.95665 -0.952943 0.600486
rclavicle -8.44835e-015 -1.66979e-014
rhumerus -28.4729 -12.3427 -85.6082
rradius 20.9147
rwrist 12.2735
rhand -18.7908 -3.71006
rfingers 7.12502
rthumb 7.50707 -33.5568
lclavicle -8.44835e-015 -1.66979e-014
lhumerus -27.6181 8.92702 83.6235
lradius 28.7987
lwrist 12.7013
lhand -17.7639 13.7736
lfingers 7.12502
lthumb 8.49818 43.5826
rfemur -5.83887 4.07116 27.3175
rtibia 33.7174
rfoot -26.8479 -14.0961
rtoes 8.13947
lfemur -4.94489 3.33925 -15.5021
ltibia 24.6015
lfoot -15.9492 -7.78643
ltoes -2.29879
575
root 48.3185 16.2291 -5.11543 1300.22 84.3871 1301.14
lowerback -3.6268 0.23781 2.21911
upperback 1.96161 0.213598 -0.249421
thorax 4.06726 0.172577 -1.48678
lowerneck -9.26533 -1.45489 0.892913
upperneck 11.2459 -2.39213 2.83417
head 4.92517 -0.923973 0.569398
rclavicle -7.23079e-015 7.95139e-015
rhumerus -28.6916 -12.6098 -85.3987
rradius 20.8405
rwrist 12.3375
rhand -18.752 -3.68686
rfingers 7.12502
rthumb 7.54449 -33.5323
lclavicle -7.23079e-015 7.95139e-015
lhumerus -27.6033 8.72159 83.732
lradius 28.9856
lwrist 12.8852
lhand -17.7718 13.7812
lfingers 7.12502
lthumb 8.49059 43.5905
rfemur -5.90056 4.17805 27.2607
rtibia 33.7609
rfoot -26.8352 -14.0508
rtoes 8.03185
lfemur -4.94236 3.25989 -15.5883
ltibia 24.5965
lfoot -15.9831 -7.53242
ltoes -2.15376
576
root 48.3328 16.2295 -5.12657 1301.48 84.5353 1302.33
lowerback -3.61329 0.229535 2.21656
upperback 1.93565 0.202893 -0.244749
thorax 4.03216 0.166402 -1.48135
lowerneck -9.23586 -1.40011 0.957425
upperneck 11.1652 -2.31431 2.74279
head 4.89258 -0.891318 0.536341
rclavicle 3.21783e-015 -3.97569e-015
rhumerus -28.9157 -12.8061 -85.2144
rradius 20.8043
rwrist 12.3423
rhand -18.7061 -3.67116
rfingers 7.12502
rthumb 7.58886 -33.515
lclavicle 3.21783e-015 -3.97569e-015
lhumerus -27.6151 8.50599 83.8355
lradius 29.1806
lwrist 13.0823
lhand -17.775 13.7796
lfingers 7.12502
lthumb 8.48746 43.589
rfemur -5.94302 4.26648 27.2057
rtibia 33.7995
rfoot -26.8198 -13.9978
rtoes 7.93439
lfemur -4.92478 3.17078 -15.6714
ltibia 24.5936
lfoot -16.0161 -7.27746
ltoes -2.01295
577
root 48.3459 16.2297 -5.13812 1302.84 84.6655 1303.65
lowerback -3.5721 0.215233 2.23409
upperback 1.91064 0.183727 -0.23734
thorax 3.98212 0.15639 -1.48498
lowerneck -9.19864 -1.3433 1.02439
upperneck 11.085 -2.23464 2.65772
head 4.85903 -0.857183 0.504993
rclavicle -1.24737e-014 3.97569e-016
rhumerus -29.1434 -12.9291 -85.0547
rradius 20.8001
rwrist 12.2924
rhand -18.6464 -3.67485
rfingers 7.12502
rthumb 7.64646 -33.5166
lclavicle -1.24737e-014 3.97569e-016
lhumerus -27.6458 8.29215 83.933
lradius 29.3674
lwrist 13.2778
lhand -17.758 13.7949
lfingers 7.12502
lthumb 8.50389 43.6037
rfemur -5.9666 4.33929 27.164
rtibia 33.8304
rfoot -26.8014 -13.9382
rtoes 7.84538
lfemur -4.89349 3.08733 -15.739
ltibia 24.5964
lfoot -16.0602 -7.02141
ltoes -1.94889
578
root 48.3583 16.2296 -5.14999 1304.32 84.7824 1305.1
lowerback -3.52016 0.197909 2.26724
upperback 1.89349 0.159945 -0.227736
thorax 3.93403 0.144588 -1.49542
lowerneck -9.16015 -1.28723 1.09628
upperneck 10.9981 -2.15618 2.56903
head 4.82324 -0.823761 0.47163
rclavicle 1.09332e-015 -1.19271e-015
rhumerus -29.3618 -12.9988 -84.9156
rradius 20.8203
rwrist 12.2058
rhand -18.5907 -3.66968
rfingers 7.12502
rthumb 7.70019 -33.5095
lclavicle 1.09332e-015 -1.19271e-015
lhumerus -27.6793 8.08495 84.0281
lradius 29.5452
lwrist 13.4672
lhand -17.7329 13.8187
lfingers 7.12502
lthumb 8.52814 43.6265
rfemur -5.97423 4.39664 27.1311
rtibia 33.8524
rfoot -26.7791 -13.8682
rtoes 7.75366
lfemur -4.85231 3.01407 -15.794
ltibia 24.6067
lfoot -16.1156 -6.76947
ltoes -1.92982
